<svg xmlns="http://www.w3.org/2000/svg" viewBox="0 0 512 512">
  <defs>
    <filter id="paperGrain" x="0" y="0" width="100%" height="100%">
      <feTurbulence type="fractalNoise" baseFrequency="0.85" numOctaves="2" seed="4"/>
      <feColorMatrix values="0 0 0 0 0.12  0 0 0 0 0.10  0 0 0 0 0.08  0 0 0 0.05 0"/>
      <feComposite in2="SourceGraphic" operator="in"/>
    </filter>
  </defs>

  <g id="background">
    <rect x="0" y="0" width="512" height="512" fill="#FDFBF8"/>
    <rect x="0" y="0" width="512" height="512" fill="#FDFBF8" filter="url(#paperGrain)"/>
  </g>

  <g id="lead" fill="#1F1A14">
    <path d="M 128.5 362.0 L 134.0 366.3 L 140.2 369.1 L 147.1 370.6 L 154.4 370.5 L 161.9 369.1 L 169.6 366.5 L 177.4 362.8 L 185.3 358.0 L 193.3 352.4 L 201.3 345.9 L 209.4 338.8 L 217.5 330.9 L 225.8 322.5 L 234.1 313.6 L 242.4 304.3 L 250.9 294.7 L 259.4 284.8 L 267.9 274.7 L 276.5 264.4 L 285.1 254.2 L 293.7 243.9 L 302.3 233.6 L 310.7 223.4 L 319.0 213.4 L 327.2 203.6 L 335.2 194.0 L 343.1 184.9 L 350.9 176.2 L 358.6 168.0 L 366.2 160.5 L 373.8 153.6 L 381.2 147.5 L 388.5 142.2 L 395.7 137.7 L 402.8 134.1 L 409.9 131.5 L 417.0 129.8 L 424.2 129.3 L 431.5 129.9 L 439.0 132.0 L 441.0 128.0 L 433.3 124.0 L 425.3 121.2 L 416.7 119.9 L 407.9 119.8 L 398.8 121.0 L 389.6 123.5 L 380.3 127.0 L 371.0 131.5 L 361.6 137.0 L 352.2 143.3 L 342.8 150.3 L 333.4 158.0 L 324.1 166.3 L 314.9 175.1 L 305.7 184.4 L 296.7 194.1 L 287.8 204.2 L 279.2 214.6 L 270.7 225.2 L 262.4 235.8 L 254.2 246.5 L 246.1 257.2 L 238.1 267.6 L 230.3 277.8 L 222.5 287.7 L 215.0 297.2 L 207.5 306.3 L 200.3 314.9 L 193.3 322.9 L 186.5 330.3 L 180.0 337.0 L 173.7 342.9 L 167.8 348.1 L 162.1 352.3 L 156.7 355.7 L 151.6 358.2 L 146.7 359.8 L 141.8 360.4 L 136.8 359.8 L 131.5 358.0 Z"/>
  </g>

  <g id="daemon" fill="#1F1A14">
    <circle cx="135.3" cy="394.2" r="3.48"/>
    <circle cx="171.2" cy="390.0" r="3.35"/>
    <circle cx="194.9" cy="376.5" r="3.52"/>
    <circle cx="216.9" cy="357.7" r="3.42"/>
    <circle cx="242.4" cy="330.6" r="3.81"/>
    <circle cx="262.9" cy="306.3" r="3.12"/>
    <circle cx="286.4" cy="277.1" r="3.83"/>
    <circle cx="313.4" cy="243.8" r="2.76"/>
    <circle cx="338.4" cy="214.4" r="4.05"/>
    <circle cx="359.6" cy="192.0" r="3.56"/>
    <circle cx="378.9" cy="174.6" r="2.72"/>
    <circle cx="399.6" cy="160.5" r="2.78"/>
    <circle cx="413.1" cy="155.4" r="3.04"/>
    <circle cx="422.2" cy="155.2" r="3.35"/>
  </g>

  <g id="anchor">
    <circle cx="130" cy="360" r="14" fill="#D9742A"/>
  </g>
</svg>
